<svg width="18" height="20" viewBox="0 0 18 20" fill="none" xmlns="http://www.w3.org/2000/svg">
<path d="M9.11752 4.87372C9.11485 4.84598 9.11358 4.81824 9.11358 4.79044C9.11358 4.3834 9.3802 4.05226 9.70782 4.05226C10.0431 4.05226 10.3057 4.37651 10.3057 4.79044C10.3057 4.88416 10.2916 4.97451 10.2654 5.05797C10.3636 4.90181 10.4205 4.70529 10.4205 4.49927C10.4205 4.00431 10.1041 3.60156 9.71524 3.60156C9.32631 3.60156 9.01001 4.00428 9.01001 4.49927C9.01001 4.62095 9.02907 4.74006 9.06679 4.85432C9.08321 4.86057 9.10015 4.86708 9.11752 4.87372Z" fill="white"/>
<path d="M7.36206 4.0914C7.3833 4.08816 7.40274 4.08669 7.42208 4.08669C7.68286 4.08669 7.91669 4.34266 7.97796 4.69527C7.98412 4.73395 7.98798 4.77248 7.98971 4.81048C8.00665 4.80187 8.02388 4.79378 8.04142 4.78629C8.05003 4.72516 8.05422 4.66785 8.05422 4.6103C8.05422 4.15376 7.81238 3.76807 7.52621 3.76807C7.28247 3.76807 7.07709 4.03652 7.01855 4.39912C7.08521 4.23374 7.20689 4.11717 7.36206 4.0914Z" fill="white"/>
<path d="M12.2727 13.2998C12.3383 13.0218 12.4687 12.312 12.3453 11.4533C12.1892 10.368 10.6622 6.98866 10.3994 6.61133C10.2461 6.63274 9.83878 6.86811 9.50845 7.05897C9.12539 7.28028 8.72918 7.50922 8.45978 7.58698C8.40353 7.60291 8.34471 7.61078 8.2841 7.61078C7.89039 7.61078 7.46426 7.27792 7.18952 7.01573C7.14153 7.52451 6.87037 8.17008 6.57699 8.50188C6.39168 8.7144 6.22606 9.19987 6.06589 9.66942C5.91753 10.1042 5.76414 10.5538 5.57634 10.8504C5.19634 11.4425 4.97837 12.5925 5.25487 13.2466C5.38868 13.5636 5.87432 13.938 6.30277 14.2683C6.82677 14.6723 7.27927 15.0211 7.32919 15.3729C7.38744 15.7888 7.16624 16.0193 6.94504 16.1286L7.50617 16.7707C7.59286 16.7838 7.80165 16.809 8.12885 16.809C8.51156 16.809 8.93639 16.7756 9.3912 16.7094C10.5079 16.544 11.2856 15.6238 11.4394 15.4284C11.4402 15.1695 11.4482 14.0178 11.5237 13.6577C11.553 13.519 11.6656 13.2869 12.0909 13.2869C12.1571 13.2868 12.22 13.2926 12.2727 13.2998Z" fill="white"/>
<path d="M7.3999 6.17062C7.4218 6.25576 7.61562 6.47356 7.91705 6.67131C7.95983 6.69877 7.99998 6.72608 8.03767 6.75168C8.20487 6.8653 8.27923 6.91195 8.39943 6.89575C8.5764 6.87254 9.22837 6.47725 9.50681 6.30843L9.5761 6.26645C9.67978 6.20331 9.76264 6.16018 9.82922 6.12551C9.96106 6.05692 9.97298 6.04585 9.9786 6.02082C9.96366 5.98204 9.84058 5.87822 9.60451 5.79708C9.52948 5.77022 9.42303 5.72768 9.2997 5.67847C9.0329 5.57194 8.66746 5.42619 8.51934 5.39996C8.51301 5.39876 8.50707 5.39838 8.50039 5.39838C8.37432 5.39838 8.11962 5.55654 7.86649 5.79191C7.74172 5.90455 7.49816 6.09464 7.3999 6.17062Z" fill="#E69629"/>
<path d="M5.17315 14.9053C5.06349 14.7217 4.96871 14.563 4.91756 14.484C4.71584 14.17 4.36575 13.8193 4.1989 13.8193C4.18428 13.8193 4.17658 13.8227 4.17158 13.8256C4.08253 13.8763 4.00769 14.0308 3.93523 14.1802C3.83514 14.3867 3.72166 14.6208 3.51209 14.7478C3.35705 14.8419 3.12003 14.8933 2.89095 14.9431C2.72793 14.9785 2.34628 15.0613 2.32835 15.1386C2.30363 15.243 2.32663 15.3507 2.35581 15.4871C2.39015 15.6481 2.43301 15.8483 2.39652 16.0942C2.37078 16.2484 2.32399 16.3956 2.2786 16.5381C2.21557 16.7362 2.1441 16.961 2.20572 17.0301C2.28173 17.0972 2.74034 17.1714 3.07517 17.2256C3.49606 17.2937 3.93126 17.3642 4.19778 17.4759L4.2684 17.5056C4.74579 17.7062 5.63436 18.0797 6.08323 18.0797C6.12408 18.0797 6.15889 18.0764 6.18698 18.07C6.26439 18.0179 6.59236 17.7823 6.65399 17.4926C6.73816 17.1193 6.39602 16.6839 6.18469 16.4575C5.95013 16.2056 5.50108 15.454 5.17315 14.9053Z" fill="#E69629"/>
<path d="M15.3196 15.7994L15.2649 15.7706C14.8892 15.572 14.6916 15.0329 14.7178 14.6266C14.7227 14.5517 14.7134 14.4937 14.6982 14.4492C14.6288 14.5634 14.5297 14.7075 14.4119 14.8253C14.2119 15.0254 13.7235 15.2413 13.2833 15.2413C13.1191 15.2413 12.9694 15.2123 12.8385 15.1552C12.3991 14.9636 12.3392 14.4141 12.3381 14.1386C12.3315 14.1404 12.3256 14.1425 12.3203 14.145C12.2934 14.24 12.3195 14.5601 12.337 14.7756C12.3464 14.8908 12.3561 15.01 12.3618 15.1194C12.3867 15.6013 12.2332 16.4187 12.1 17.0195C11.9735 17.6078 12.2089 18.0202 12.4946 18.1093C12.5202 18.1174 12.5491 18.1214 12.5808 18.1214C12.844 18.1214 13.2799 17.849 13.6653 17.4435C13.9391 17.1556 14.5485 16.8444 15.0862 16.5698C15.3893 16.4151 15.7027 16.255 15.7918 16.1736C15.8116 16.1551 15.8146 16.1448 15.8146 16.1447C15.809 16.0563 15.4535 15.8697 15.3196 15.7994Z" fill="#E69629"/>
<mask id="path-7-outside-1" maskUnits="userSpaceOnUse" x="0.313477" y="0" width="17" height="20" fill="black">
<rect fill="white" x="0.313477" width="17" height="20"/>
<path d="M16.2094 15.4524C15.6815 15.2363 15.4557 14.9494 15.4776 14.5213C15.5001 14.0217 15.2166 13.6558 15.082 13.5112C15.1633 13.2005 15.401 12.1258 15.0822 11.1923C14.7397 10.1932 13.6939 8.66723 12.6149 7.16723C12.1731 6.55122 12.1523 5.88157 12.1281 5.1062C12.105 4.36665 12.0789 3.52839 11.6665 2.59651C11.2181 1.58183 10.3183 1 9.19774 1C8.53114 1 7.8469 1.20834 7.32037 1.57153C6.24213 2.31568 6.38465 3.9381 6.47898 5.01159C6.49191 5.15862 6.50404 5.29748 6.51114 5.41603C6.57393 6.46748 6.5168 7.02168 6.4421 7.19011C6.39376 7.30019 6.15582 7.61343 5.904 7.94513C5.64356 8.28818 5.34829 8.67693 5.10627 9.03922C4.8175 9.47519 4.58438 10.1415 4.35896 10.7859C4.194 11.2574 4.03819 11.7028 3.88653 11.9691C3.59906 12.4811 3.6706 12.9586 3.7303 13.1792C3.62145 13.2548 3.46423 13.4037 3.33152 13.6843C3.1711 14.0266 2.84563 14.2105 2.16884 14.3406C1.85781 14.4043 1.64336 14.535 1.53121 14.7293C1.36802 15.0121 1.45693 15.3673 1.538 15.6102C1.65781 15.967 1.58314 16.193 1.4474 16.6032C1.41611 16.6978 1.38064 16.805 1.34471 16.9232C1.28811 17.1098 1.30853 17.2794 1.40525 17.4274C1.66083 17.8181 2.4067 17.9559 3.17451 18.0466C3.63295 18.101 4.1347 18.2843 4.61999 18.4617C5.09548 18.6354 5.58717 18.8151 6.03408 18.8697C6.102 18.8782 6.16929 18.8825 6.23415 18.8825C6.90894 18.8825 7.21381 18.4348 7.31049 18.2508C7.55286 18.2014 8.38883 18.043 9.25044 18.0217C10.1107 17.9972 10.943 18.167 11.1788 18.2198C11.2529 18.3617 11.4483 18.6857 11.7598 18.8527C11.931 18.9463 12.1692 19 12.4133 19C12.6739 19 13.1697 18.9383 13.5622 18.5255C13.9536 18.1108 14.9315 17.5812 15.6455 17.1946C15.8049 17.1083 15.954 17.0276 16.0847 16.9548C16.4858 16.7324 16.7047 16.4147 16.6852 16.0831C16.6689 15.8075 16.4866 15.5659 16.2094 15.4524ZM9.71513 3.60138C10.104 3.60138 10.4204 4.00409 10.4204 4.49909C10.4204 4.70507 10.3635 4.90159 10.2653 5.05779C10.2914 4.97433 10.3056 4.88398 10.3056 4.79025C10.3056 4.37632 10.043 4.05208 9.70771 4.05208C9.38006 4.05208 9.11347 4.38321 9.11347 4.79025C9.11347 4.81806 9.11484 4.8458 9.11741 4.87354C9.10004 4.86693 9.08313 4.86039 9.06661 4.85413C9.02888 4.73987 9.00983 4.62076 9.00983 4.49909C9.00986 4.00412 9.3262 3.60138 9.71513 3.60138ZM8.51926 5.40028C8.66741 5.42644 9.03275 5.57226 9.29962 5.67879C9.42295 5.728 9.52951 5.77054 9.60443 5.7974C9.8405 5.87854 9.96362 5.98236 9.97852 6.02114C9.97293 6.0462 9.96098 6.05724 9.82914 6.12583C9.76256 6.16046 9.67973 6.20356 9.57602 6.26677L9.50673 6.30875C9.22829 6.4776 8.57632 6.87293 8.39934 6.89607C8.27911 6.91224 8.20475 6.86555 8.03759 6.752C7.99987 6.72633 7.95975 6.69905 7.91697 6.67163C7.61557 6.47381 7.42169 6.25609 7.39982 6.17094C7.49808 6.095 7.74164 5.90488 7.86634 5.79227C8.11947 5.5569 8.37417 5.39873 8.50024 5.39873C8.50692 5.39863 8.51297 5.39908 8.51926 5.40028ZM7.52589 3.76763C7.81213 3.76763 8.0539 4.15329 8.0539 4.60986C8.0539 4.66745 8.04975 4.72472 8.0411 4.78586C8.02356 4.79334 8.00633 4.8015 7.98939 4.81004C7.98767 4.77197 7.98373 4.73351 7.97765 4.69484C7.9164 4.34222 7.68255 4.08625 7.42176 4.08625C7.40246 4.08625 7.38305 4.08773 7.36175 4.09096C7.2066 4.1168 7.08489 4.23331 7.0182 4.39861C7.07681 4.03605 7.28222 3.76763 7.52589 3.76763ZM6.65395 17.4927C6.59232 17.7824 6.26431 18.018 6.18693 18.0701C6.15884 18.0764 6.12408 18.0798 6.08319 18.0798C5.63432 18.0798 4.74574 17.7063 4.26836 17.5057L4.19773 17.4759C3.93114 17.3642 3.49598 17.2938 3.07513 17.2257C2.74026 17.1715 2.28172 17.0973 2.20568 17.0302C2.14405 16.9611 2.21552 16.7363 2.27856 16.5382C2.32395 16.3957 2.37081 16.2484 2.39647 16.0942C2.43289 15.8484 2.39011 15.6481 2.35576 15.4872C2.32662 15.3508 2.30359 15.243 2.32831 15.1387C2.34623 15.0614 2.72789 14.9786 2.89091 14.9432C3.12006 14.8933 3.35708 14.8419 3.51205 14.7479C3.72161 14.6209 3.8351 14.3868 3.93519 14.1802C4.00764 14.0309 4.08249 13.8764 4.17154 13.8257C4.17657 13.8227 4.18423 13.8194 4.19886 13.8194C4.36571 13.8194 4.71579 14.17 4.91752 14.4841C4.96867 14.5631 5.06345 14.7217 5.1731 14.9054C5.50107 15.4541 5.95012 16.2057 6.18465 16.4575C6.39597 16.684 6.73808 17.1194 6.65395 17.4927ZM11.5236 13.6575C11.4482 14.0176 11.4402 15.1693 11.4394 15.4282C11.2856 15.6236 10.5078 16.5437 9.39117 16.7092C8.93632 16.7753 8.5116 16.8088 8.12882 16.8088C7.80162 16.8088 7.59283 16.7835 7.50613 16.7705L6.94501 16.1284C7.16621 16.0191 7.38741 15.7886 7.32916 15.3727C7.27924 15.0209 6.82674 14.6721 6.30274 14.2681C5.87429 13.9378 5.38864 13.5635 5.25484 13.2464C4.97834 12.5924 5.19631 11.4423 5.57631 10.8502C5.76411 10.5537 5.9175 10.104 6.06586 9.66922C6.22603 9.19967 6.39168 8.71417 6.57696 8.50168C6.87033 8.16988 7.14146 7.52431 7.18948 7.01553C7.46419 7.27772 7.89035 7.61058 8.28407 7.61058C8.34468 7.61058 8.40353 7.60267 8.45974 7.58678C8.72911 7.50898 9.12528 7.28008 9.50841 7.05877C9.83874 6.86791 10.2461 6.63254 10.3993 6.61113C10.6621 6.98849 12.1892 10.3678 12.3452 11.4531C12.4687 12.3118 12.3383 13.0216 12.2727 13.2996C12.2199 13.2924 12.157 13.2866 12.0909 13.2866C11.6656 13.2866 11.553 13.5188 11.5236 13.6575ZM15.7918 16.1741C15.7028 16.2555 15.3893 16.4156 15.0862 16.5704C14.5485 16.8449 13.939 17.1561 13.6653 17.444C13.28 17.8496 12.8441 18.122 12.5808 18.122C12.5492 18.122 12.5203 18.118 12.4946 18.1098C12.2089 18.0208 11.9736 17.6083 12.1 17.0201C12.2332 16.4192 12.3866 15.6018 12.3618 15.1199C12.3561 15.0105 12.3464 14.8913 12.337 14.7761C12.3195 14.5607 12.2935 14.2406 12.3203 14.1456C12.3256 14.1431 12.3316 14.141 12.3381 14.1391C12.3392 14.4146 12.3991 14.9641 12.8385 15.1557C12.9695 15.2129 13.1191 15.2418 13.2833 15.2418C13.7235 15.2418 14.2119 15.0259 14.412 14.8258C14.5298 14.7081 14.6289 14.5639 14.6983 14.4497C14.7134 14.4942 14.7228 14.5523 14.7178 14.6271C14.6917 15.0334 14.8892 15.5725 15.265 15.7711L15.3197 15.7999C15.4535 15.8701 15.8091 16.0568 15.8148 16.1453C15.8148 16.1453 15.8117 16.1557 15.7918 16.1741Z"/>
</mask>
<path d="M16.2094 15.4524C15.6815 15.2363 15.4557 14.9494 15.4776 14.5213C15.5001 14.0217 15.2166 13.6558 15.082 13.5112C15.1633 13.2005 15.401 12.1258 15.0822 11.1923C14.7397 10.1932 13.6939 8.66723 12.6149 7.16723C12.1731 6.55122 12.1523 5.88157 12.1281 5.1062C12.105 4.36665 12.0789 3.52839 11.6665 2.59651C11.2181 1.58183 10.3183 1 9.19774 1C8.53114 1 7.8469 1.20834 7.32037 1.57153C6.24213 2.31568 6.38465 3.9381 6.47898 5.01159C6.49191 5.15862 6.50404 5.29748 6.51114 5.41603C6.57393 6.46748 6.5168 7.02168 6.4421 7.19011C6.39376 7.30019 6.15582 7.61343 5.904 7.94513C5.64356 8.28818 5.34829 8.67693 5.10627 9.03922C4.8175 9.47519 4.58438 10.1415 4.35896 10.7859C4.194 11.2574 4.03819 11.7028 3.88653 11.9691C3.59906 12.4811 3.6706 12.9586 3.7303 13.1792C3.62145 13.2548 3.46423 13.4037 3.33152 13.6843C3.1711 14.0266 2.84563 14.2105 2.16884 14.3406C1.85781 14.4043 1.64336 14.535 1.53121 14.7293C1.36802 15.0121 1.45693 15.3673 1.538 15.6102C1.65781 15.967 1.58314 16.193 1.4474 16.6032C1.41611 16.6978 1.38064 16.805 1.34471 16.9232C1.28811 17.1098 1.30853 17.2794 1.40525 17.4274C1.66083 17.8181 2.4067 17.9559 3.17451 18.0466C3.63295 18.101 4.1347 18.2843 4.61999 18.4617C5.09548 18.6354 5.58717 18.8151 6.03408 18.8697C6.102 18.8782 6.16929 18.8825 6.23415 18.8825C6.90894 18.8825 7.21381 18.4348 7.31049 18.2508C7.55286 18.2014 8.38883 18.043 9.25044 18.0217C10.1107 17.9972 10.943 18.167 11.1788 18.2198C11.2529 18.3617 11.4483 18.6857 11.7598 18.8527C11.931 18.9463 12.1692 19 12.4133 19C12.6739 19 13.1697 18.9383 13.5622 18.5255C13.9536 18.1108 14.9315 17.5812 15.6455 17.1946C15.8049 17.1083 15.954 17.0276 16.0847 16.9548C16.4858 16.7324 16.7047 16.4147 16.6852 16.0831C16.6689 15.8075 16.4866 15.5659 16.2094 15.4524ZM9.71513 3.60138C10.104 3.60138 10.4204 4.00409 10.4204 4.49909C10.4204 4.70507 10.3635 4.90159 10.2653 5.05779C10.2914 4.97433 10.3056 4.88398 10.3056 4.79025C10.3056 4.37632 10.043 4.05208 9.70771 4.05208C9.38006 4.05208 9.11347 4.38321 9.11347 4.79025C9.11347 4.81806 9.11484 4.8458 9.11741 4.87354C9.10004 4.86693 9.08313 4.86039 9.06661 4.85413C9.02888 4.73987 9.00983 4.62076 9.00983 4.49909C9.00986 4.00412 9.3262 3.60138 9.71513 3.60138ZM8.51926 5.40028C8.66741 5.42644 9.03275 5.57226 9.29962 5.67879C9.42295 5.728 9.52951 5.77054 9.60443 5.7974C9.8405 5.87854 9.96362 5.98236 9.97852 6.02114C9.97293 6.0462 9.96098 6.05724 9.82914 6.12583C9.76256 6.16046 9.67973 6.20356 9.57602 6.26677L9.50673 6.30875C9.22829 6.4776 8.57632 6.87293 8.39934 6.89607C8.27911 6.91224 8.20475 6.86555 8.03759 6.752C7.99987 6.72633 7.95975 6.69905 7.91697 6.67163C7.61557 6.47381 7.42169 6.25609 7.39982 6.17094C7.49808 6.095 7.74164 5.90488 7.86634 5.79227C8.11947 5.5569 8.37417 5.39873 8.50024 5.39873C8.50692 5.39863 8.51297 5.39908 8.51926 5.40028ZM7.52589 3.76763C7.81213 3.76763 8.0539 4.15329 8.0539 4.60986C8.0539 4.66745 8.04975 4.72472 8.0411 4.78586C8.02356 4.79334 8.00633 4.8015 7.98939 4.81004C7.98767 4.77197 7.98373 4.73351 7.97765 4.69484C7.9164 4.34222 7.68255 4.08625 7.42176 4.08625C7.40246 4.08625 7.38305 4.08773 7.36175 4.09096C7.2066 4.1168 7.08489 4.23331 7.0182 4.39861C7.07681 4.03605 7.28222 3.76763 7.52589 3.76763ZM6.65395 17.4927C6.59232 17.7824 6.26431 18.018 6.18693 18.0701C6.15884 18.0764 6.12408 18.0798 6.08319 18.0798C5.63432 18.0798 4.74574 17.7063 4.26836 17.5057L4.19773 17.4759C3.93114 17.3642 3.49598 17.2938 3.07513 17.2257C2.74026 17.1715 2.28172 17.0973 2.20568 17.0302C2.14405 16.9611 2.21552 16.7363 2.27856 16.5382C2.32395 16.3957 2.37081 16.2484 2.39647 16.0942C2.43289 15.8484 2.39011 15.6481 2.35576 15.4872C2.32662 15.3508 2.30359 15.243 2.32831 15.1387C2.34623 15.0614 2.72789 14.9786 2.89091 14.9432C3.12006 14.8933 3.35708 14.8419 3.51205 14.7479C3.72161 14.6209 3.8351 14.3868 3.93519 14.1802C4.00764 14.0309 4.08249 13.8764 4.17154 13.8257C4.17657 13.8227 4.18423 13.8194 4.19886 13.8194C4.36571 13.8194 4.71579 14.17 4.91752 14.4841C4.96867 14.5631 5.06345 14.7217 5.1731 14.9054C5.50107 15.4541 5.95012 16.2057 6.18465 16.4575C6.39597 16.684 6.73808 17.1194 6.65395 17.4927ZM11.5236 13.6575C11.4482 14.0176 11.4402 15.1693 11.4394 15.4282C11.2856 15.6236 10.5078 16.5437 9.39117 16.7092C8.93632 16.7753 8.5116 16.8088 8.12882 16.8088C7.80162 16.8088 7.59283 16.7835 7.50613 16.7705L6.94501 16.1284C7.16621 16.0191 7.38741 15.7886 7.32916 15.3727C7.27924 15.0209 6.82674 14.6721 6.30274 14.2681C5.87429 13.9378 5.38864 13.5635 5.25484 13.2464C4.97834 12.5924 5.19631 11.4423 5.57631 10.8502C5.76411 10.5537 5.9175 10.104 6.06586 9.66922C6.22603 9.19967 6.39168 8.71417 6.57696 8.50168C6.87033 8.16988 7.14146 7.52431 7.18948 7.01553C7.46419 7.27772 7.89035 7.61058 8.28407 7.61058C8.34468 7.61058 8.40353 7.60267 8.45974 7.58678C8.72911 7.50898 9.12528 7.28008 9.50841 7.05877C9.83874 6.86791 10.2461 6.63254 10.3993 6.61113C10.6621 6.98849 12.1892 10.3678 12.3452 11.4531C12.4687 12.3118 12.3383 13.0216 12.2727 13.2996C12.2199 13.2924 12.157 13.2866 12.0909 13.2866C11.6656 13.2866 11.553 13.5188 11.5236 13.6575ZM15.7918 16.1741C15.7028 16.2555 15.3893 16.4156 15.0862 16.5704C14.5485 16.8449 13.939 17.1561 13.6653 17.444C13.28 17.8496 12.8441 18.122 12.5808 18.122C12.5492 18.122 12.5203 18.118 12.4946 18.1098C12.2089 18.0208 11.9736 17.6083 12.1 17.0201C12.2332 16.4192 12.3866 15.6018 12.3618 15.1199C12.3561 15.0105 12.3464 14.8913 12.337 14.7761C12.3195 14.5607 12.2935 14.2406 12.3203 14.1456C12.3256 14.1431 12.3316 14.141 12.3381 14.1391C12.3392 14.4146 12.3991 14.9641 12.8385 15.1557C12.9695 15.2129 13.1191 15.2418 13.2833 15.2418C13.7235 15.2418 14.2119 15.0259 14.412 14.8258C14.5298 14.7081 14.6289 14.5639 14.6983 14.4497C14.7134 14.4942 14.7228 14.5523 14.7178 14.6271C14.6917 15.0334 14.8892 15.5725 15.265 15.7711L15.3197 15.7999C15.4535 15.8701 15.8091 16.0568 15.8148 16.1453C15.8148 16.1453 15.8117 16.1557 15.7918 16.1741Z" fill="black"/>
<path d="M16.2094 15.4524C15.6815 15.2363 15.4557 14.9494 15.4776 14.5213C15.5001 14.0217 15.2166 13.6558 15.082 13.5112C15.1633 13.2005 15.401 12.1258 15.0822 11.1923C14.7397 10.1932 13.6939 8.66723 12.6149 7.16723C12.1731 6.55122 12.1523 5.88157 12.1281 5.1062C12.105 4.36665 12.0789 3.52839 11.6665 2.59651C11.2181 1.58183 10.3183 1 9.19774 1C8.53114 1 7.8469 1.20834 7.32037 1.57153C6.24213 2.31568 6.38465 3.9381 6.47898 5.01159C6.49191 5.15862 6.50404 5.29748 6.51114 5.41603C6.57393 6.46748 6.5168 7.02168 6.4421 7.19011C6.39376 7.30019 6.15582 7.61343 5.904 7.94513C5.64356 8.28818 5.34829 8.67693 5.10627 9.03922C4.8175 9.47519 4.58438 10.1415 4.35896 10.7859C4.194 11.2574 4.03819 11.7028 3.88653 11.9691C3.59906 12.4811 3.6706 12.9586 3.7303 13.1792C3.62145 13.2548 3.46423 13.4037 3.33152 13.6843C3.1711 14.0266 2.84563 14.2105 2.16884 14.3406C1.85781 14.4043 1.64336 14.535 1.53121 14.7293C1.36802 15.0121 1.45693 15.3673 1.538 15.6102C1.65781 15.967 1.58314 16.193 1.4474 16.6032C1.41611 16.6978 1.38064 16.805 1.34471 16.9232C1.28811 17.1098 1.30853 17.2794 1.40525 17.4274C1.66083 17.8181 2.4067 17.9559 3.17451 18.0466C3.63295 18.101 4.1347 18.2843 4.61999 18.4617C5.09548 18.6354 5.58717 18.8151 6.03408 18.8697C6.102 18.8782 6.16929 18.8825 6.23415 18.8825C6.90894 18.8825 7.21381 18.4348 7.31049 18.2508C7.55286 18.2014 8.38883 18.043 9.25044 18.0217C10.1107 17.9972 10.943 18.167 11.1788 18.2198C11.2529 18.3617 11.4483 18.6857 11.7598 18.8527C11.931 18.9463 12.1692 19 12.4133 19C12.6739 19 13.1697 18.9383 13.5622 18.5255C13.9536 18.1108 14.9315 17.5812 15.6455 17.1946C15.8049 17.1083 15.954 17.0276 16.0847 16.9548C16.4858 16.7324 16.7047 16.4147 16.6852 16.0831C16.6689 15.8075 16.4866 15.5659 16.2094 15.4524ZM9.71513 3.60138C10.104 3.60138 10.4204 4.00409 10.4204 4.49909C10.4204 4.70507 10.3635 4.90159 10.2653 5.05779C10.2914 4.97433 10.3056 4.88398 10.3056 4.79025C10.3056 4.37632 10.043 4.05208 9.70771 4.05208C9.38006 4.05208 9.11347 4.38321 9.11347 4.79025C9.11347 4.81806 9.11484 4.8458 9.11741 4.87354C9.10004 4.86693 9.08313 4.86039 9.06661 4.85413C9.02888 4.73987 9.00983 4.62076 9.00983 4.49909C9.00986 4.00412 9.3262 3.60138 9.71513 3.60138ZM8.51926 5.40028C8.66741 5.42644 9.03275 5.57226 9.29962 5.67879C9.42295 5.728 9.52951 5.77054 9.60443 5.7974C9.8405 5.87854 9.96362 5.98236 9.97852 6.02114C9.97293 6.0462 9.96098 6.05724 9.82914 6.12583C9.76256 6.16046 9.67973 6.20356 9.57602 6.26677L9.50673 6.30875C9.22829 6.4776 8.57632 6.87293 8.39934 6.89607C8.27911 6.91224 8.20475 6.86555 8.03759 6.752C7.99987 6.72633 7.95975 6.69905 7.91697 6.67163C7.61557 6.47381 7.42169 6.25609 7.39982 6.17094C7.49808 6.095 7.74164 5.90488 7.86634 5.79227C8.11947 5.5569 8.37417 5.39873 8.50024 5.39873C8.50692 5.39863 8.51297 5.39908 8.51926 5.40028ZM7.52589 3.76763C7.81213 3.76763 8.0539 4.15329 8.0539 4.60986C8.0539 4.66745 8.04975 4.72472 8.0411 4.78586C8.02356 4.79334 8.00633 4.8015 7.98939 4.81004C7.98767 4.77197 7.98373 4.73351 7.97765 4.69484C7.9164 4.34222 7.68255 4.08625 7.42176 4.08625C7.40246 4.08625 7.38305 4.08773 7.36175 4.09096C7.2066 4.1168 7.08489 4.23331 7.0182 4.39861C7.07681 4.03605 7.28222 3.76763 7.52589 3.76763ZM6.65395 17.4927C6.59232 17.7824 6.26431 18.018 6.18693 18.0701C6.15884 18.0764 6.12408 18.0798 6.08319 18.0798C5.63432 18.0798 4.74574 17.7063 4.26836 17.5057L4.19773 17.4759C3.93114 17.3642 3.49598 17.2938 3.07513 17.2257C2.74026 17.1715 2.28172 17.0973 2.20568 17.0302C2.14405 16.9611 2.21552 16.7363 2.27856 16.5382C2.32395 16.3957 2.37081 16.2484 2.39647 16.0942C2.43289 15.8484 2.39011 15.6481 2.35576 15.4872C2.32662 15.3508 2.30359 15.243 2.32831 15.1387C2.34623 15.0614 2.72789 14.9786 2.89091 14.9432C3.12006 14.8933 3.35708 14.8419 3.51205 14.7479C3.72161 14.6209 3.8351 14.3868 3.93519 14.1802C4.00764 14.0309 4.08249 13.8764 4.17154 13.8257C4.17657 13.8227 4.18423 13.8194 4.19886 13.8194C4.36571 13.8194 4.71579 14.17 4.91752 14.4841C4.96867 14.5631 5.06345 14.7217 5.1731 14.9054C5.50107 15.4541 5.95012 16.2057 6.18465 16.4575C6.39597 16.684 6.73808 17.1194 6.65395 17.4927ZM11.5236 13.6575C11.4482 14.0176 11.4402 15.1693 11.4394 15.4282C11.2856 15.6236 10.5078 16.5437 9.39117 16.7092C8.93632 16.7753 8.5116 16.8088 8.12882 16.8088C7.80162 16.8088 7.59283 16.7835 7.50613 16.7705L6.94501 16.1284C7.16621 16.0191 7.38741 15.7886 7.32916 15.3727C7.27924 15.0209 6.82674 14.6721 6.30274 14.2681C5.87429 13.9378 5.38864 13.5635 5.25484 13.2464C4.97834 12.5924 5.19631 11.4423 5.57631 10.8502C5.76411 10.5537 5.9175 10.104 6.06586 9.66922C6.22603 9.19967 6.39168 8.71417 6.57696 8.50168C6.87033 8.16988 7.14146 7.52431 7.18948 7.01553C7.46419 7.27772 7.89035 7.61058 8.28407 7.61058C8.34468 7.61058 8.40353 7.60267 8.45974 7.58678C8.72911 7.50898 9.12528 7.28008 9.50841 7.05877C9.83874 6.86791 10.2461 6.63254 10.3993 6.61113C10.6621 6.98849 12.1892 10.3678 12.3452 11.4531C12.4687 12.3118 12.3383 13.0216 12.2727 13.2996C12.2199 13.2924 12.157 13.2866 12.0909 13.2866C11.6656 13.2866 11.553 13.5188 11.5236 13.6575ZM15.7918 16.1741C15.7028 16.2555 15.3893 16.4156 15.0862 16.5704C14.5485 16.8449 13.939 17.1561 13.6653 17.444C13.28 17.8496 12.8441 18.122 12.5808 18.122C12.5492 18.122 12.5203 18.118 12.4946 18.1098C12.2089 18.0208 11.9736 17.6083 12.1 17.0201C12.2332 16.4192 12.3866 15.6018 12.3618 15.1199C12.3561 15.0105 12.3464 14.8913 12.337 14.7761C12.3195 14.5607 12.2935 14.2406 12.3203 14.1456C12.3256 14.1431 12.3316 14.141 12.3381 14.1391C12.3392 14.4146 12.3991 14.9641 12.8385 15.1557C12.9695 15.2129 13.1191 15.2418 13.2833 15.2418C13.7235 15.2418 14.2119 15.0259 14.412 14.8258C14.5298 14.7081 14.6289 14.5639 14.6983 14.4497C14.7134 14.4942 14.7228 14.5523 14.7178 14.6271C14.6917 15.0334 14.8892 15.5725 15.265 15.7711L15.3197 15.7999C15.4535 15.8701 15.8091 16.0568 15.8148 16.1453C15.8148 16.1453 15.8117 16.1557 15.7918 16.1741Z" stroke="white" mask="url(#path-7-outside-1)"/>
</svg>
